#!OML:ASF E:\pregnant2\Project 1\Capture day 1\Session 1\pregnant2.ASF
:FULLY-SPECIFIED
:DEGREES
1198
root 2.91759 14.6814 8.84102 -147.183 71.4866 166.817
lowerback 1.02323 1.42012 -7.97536
upperback -11.3661 1.57084 -4.96542
thorax -13.0398 1.60101 -1.29265
lowerneck -22.986 -11.9299 -13.5128
upperneck 22.8831 -15.4881 12.4418
head 13.7021 -6.39138 4.03008
rclavicle -8.8658e-014 1.03368e-014
rhumerus -37.1786 28.7687 -93.9244
rradius 49.9433
rwrist 5.80574
rhand -14.2424 -14.3773
rfingers 7.12502
rthumb 11.8953 -44.0194
lclavicle -8.8658e-014 1.03368e-014
lhumerus -53.8862 -49.8233 111.092
lradius 65.8862
lwrist 0.51515
lhand -25.6562 38.8103
lfingers 7.12502
lthumb 0.877788 68.7882
rfemur -49.2941 11.566 4.22083
rtibia 72.1382
rfoot 10.1331 9.26492
rtoes 2.62245
lfemur -90.2635 -2.83712 -32.8162
ltibia 69.7497
lfoot -22.3989 0.846118
ltoes -7.03785
1199
root 2.9374 14.7551 8.80962 -146.876 71.7194 167.221
lowerback 0.937415 1.40283 -7.94452
upperback -11.4447 1.56153 -4.96221
thorax -13.0782 1.59883 -1.30734
lowerneck -23.0019 -11.9566 -13.416
upperneck 22.9665 -15.5931 12.5158
head 13.7563 -6.41383 4.02209
rclavicle -5.76476e-014 -6.63941e-014
rhumerus -37.3644 28.974 -94.1965
rradius 50.2136
rwrist 5.80836
rhand -14.1042 -14.1317
rfingers 7.12502
rthumb 12.0287 -43.766
lclavicle -5.76476e-014 -6.63941e-014
lhumerus -53.9066 -49.9782 111.336
lradius 64.859
lwrist 0.381493
lhand -24.9724 38.7176
lfingers 7.12502
lthumb 1.53823 68.6918
rfemur -48.9467 11.7825 4.18349
rtibia 71.1775
rfoot 10.9231 9.09555
rtoes 2.77695
lfemur -89.5854 -2.64079 -32.7747
ltibia 68.9352
lfoot -22.2836 0.963131
ltoes -7.2178
1200
root 2.95832 14.828 8.77952 -146.602 71.9449 167.612
lowerback 0.849129 1.28003 -7.98744
upperback -11.5195 1.40968 -4.8376
thorax -13.1102 1.54167 -1.12886
lowerneck -23.0394 -11.8691 -13.33
upperneck 23.0587 -15.5083 12.5309
head 13.7829 -6.36283 4.03593
rclavicle 3.18055e-014 -3.77691e-014
rhumerus -37.5332 29.5946 -94.6013
rradius 50.4714
rwrist 5.69408
rhand -13.9715 -14.0808
rfingers 7.12502
rthumb 12.1566 -43.7076
lclavicle 3.18055e-014 -3.77691e-014
lhumerus -53.7261 -49.7331 111.402
lradius 63.7499
lwrist 0.144855
lhand -24.8557 38.8851
lfingers 7.12502
lthumb 1.65089 68.8585
rfemur -48.5675 12.0329 4.14143
rtibia 70.2355
rfoot 11.7433 8.84672
rtoes 3.04099
lfemur -88.8968 -2.42895 -32.7429
ltibia 68.1443
lfoot -22.1778 1.02735
ltoes -7.29796
1201
root 2.97915 14.8997 8.74953 -146.442 72.1545 167.938
lowerback 0.857904 1.28344 -8.00178
upperback -11.6017 1.41465 -4.79922
thorax -13.2167 1.55326 -1.0873
lowerneck -22.9551 -11.9036 -13.3419
upperneck 23.11 -15.5882 12.5903
head 13.8083 -6.39167 4.04741
rclavicle 3.27995e-014 3.10104e-014
rhumerus -37.9538 29.9032 -94.8401
rradius 50.9695
rwrist 5.53948
rhand -13.8585 -14.1223
rfingers 7.12502
rthumb 12.2656 -43.7426
lclavicle 3.27995e-014 3.10104e-014
lhumerus -53.7318 -49.7604 111.806
lradius 62.5777
lwrist -0.251625
lhand -24.5292 39.0365
lfingers 7.12502
lthumb 1.96629 69.0072
rfemur -48.1409 12.2552 4.11082
rtibia 69.3215
rfoot 12.5352 8.63994
rtoes 3.37582
lfemur -88.1469 -2.20617 -32.7534
ltibia 67.3543
lfoot -22.1021 1.0607
ltoes -7.3422
1202
root 2.99883 14.9565 8.71032 -145.662 72.4904 168.588
lowerback 0.312485 1.32166 -7.77293
upperback -11.7406 1.55541 -4.86728
thorax -13.0334 1.60414 -1.28847
lowerneck -22.8884 -11.9547 -13.2548
upperneck 23.1774 -15.7311 12.6592
head 13.8459 -6.43541 4.0326
rclavicle -3.18055e-014 2.26615e-014
rhumerus -38.2362 29.9905 -95.1236
rradius 51.2798
rwrist 5.4955
rhand -13.8148 -13.9874
rfingers 7.12502
rthumb 12.3077 -43.6051
lclavicle -3.18055e-014 2.26615e-014
lhumerus -53.8361 -49.958 112.202
lradius 61.4461
lwrist -0.616989
lhand -24.1246 38.982
lfingers 7.12502
lthumb 2.35701 68.9488
rfemur -48.1428 12.4379 3.94565
rtibia 68.4579
rfoot 13.4569 8.40704
rtoes 4.31178
lfemur -87.8057 -2.03209 -32.6664
ltibia 66.6151
lfoot -21.9533 1.29785
ltoes -7.59332
1203
root 3.01983 15.0218 8.67976 -145.44 72.7457 168.931
lowerback 0.203811 1.27609 -7.80571
upperback -11.7939 1.50647 -4.85067
thorax -13.0294 1.58858 -1.24549
lowerneck -23.0213 -11.9254 -12.9679
upperneck 23.2939 -15.7696 12.5855
head 13.8914 -6.42505 3.94789
rclavicle -6.20208e-014 1.55052e-014
rhumerus -38.4353 30.2863 -95.4348
rradius 51.5697
rwrist 5.5117
rhand -13.8014 -13.7942
rfingers 7.12502
rthumb 12.3206 -43.4112
lclavicle -6.20208e-014 1.55052e-014
lhumerus -53.711 -50.0135 112.334
lradius 60.3298
lwrist -0.922939
lhand -23.7108 38.976
lfingers 7.12502
lthumb 2.75662 68.9379
rfemur -47.8029 12.6308 3.87997
rtibia 67.6039
rfoot 14.2498 8.23584
rtoes 4.30537
lfemur -87.1307 -1.80598 -32.6891
ltibia 65.8457
lfoot -21.8642 1.42387
ltoes -7.73478
1204
root 3.0405 15.0837 8.64907 -145.17 72.9756 169.353
lowerback 0.104112 1.25887 -7.71836
upperback -11.8605 1.50234 -4.84056
thorax -13.0421 1.58197 -1.28208
lowerneck -22.9779 -11.9085 -12.8485
upperneck 23.3514 -15.8015 12.5899
head 13.9011 -6.4263 3.927
rclavicle -2.08724e-014 4.13472e-014
rhumerus -38.6414 30.4345 -95.7138
rradius 51.6931
rwrist 5.52819
rhand -13.9394 -13.3
rfingers 7.12502
rthumb 12.1875 -42.925
lclavicle -2.08724e-014 4.13472e-014
lhumerus -53.7542 -50.1317 112.668
lradius 59.2335
lwrist -1.08015
lhand -23.5029 39.1059
lfingers 7.12502
lthumb 2.9574 69.0651
rfemur -47.4391 12.806 3.85295
rtibia 66.7729
rfoot 15.0983 7.97475
rtoes 4.75148
lfemur -86.4459 -1.54048 -32.7426
ltibia 65.0941
lfoot -21.8009 1.49486
ltoes -8.09184
1205
root 3.05879 15.1502 8.61785 -145.071 73.155 169.572
lowerback 0.0274068 1.08636 -7.75139
upperback -11.9646 1.28811 -4.62859
thorax -13.115 1.50062 -1.00983
lowerneck -22.894 -11.7547 -12.9469
upperneck 23.4615 -15.5637 12.5959
head 13.904 -6.33281 4.00639
rclavicle -3.37934e-015 -3.65764e-014
rhumerus -39.0457 31.2385 -96.0676
rradius 52.0127
rwrist 5.42061
rhand -14.0155 -13.1681
rfingers 7.12502
rthumb 12.1142 -42.7974
lclavicle -3.37934e-015 -3.65764e-014
lhumerus -53.5535 -49.6105 112.876
lradius 58.0743
lwrist -1.4762
lhand -23.5468 39.6639
lfingers 7.12502
lthumb 2.91508 69.6237
rfemur -47.0944 12.739 3.82897
rtibia 65.9887
rfoot 16.0007 7.7778
rtoes 5.35325
lfemur -85.7511 -1.34836 -32.8304
ltibia 64.2977
lfoot -21.7162 1.45615
ltoes -8.00264
1206
root 3.08484 15.2191 8.58551 -144.856 73.5342 170.035
lowerback -0.0986056 1.07673 -7.84521
upperback -11.998 1.28878 -4.5466
thorax -13.0827 1.51698 -0.864863
lowerneck -22.922 -11.6995 -12.8465
upperneck 23.6007 -15.5166 12.5454
head 13.9457 -6.30372 3.98425
rclavicle -2.00773e-014 -7.15625e-015
rhumerus -39.4044 31.6366 -96.368
rradius 52.349
rwrist 5.37382
rhand -14.0068 -13.0767
rfingers 7.12502
rthumb 12.1225 -42.7055
lclavicle -2.00773e-014 -7.15625e-015
lhumerus -53.6659 -49.6255 113.392
lradius 56.99
lwrist -1.24472
lhand -24.1409 40.3707
lfingers 7.12502
lthumb 2.34124 70.3376
rfemur -46.6679 12.9853 3.77619
rtibia 65.2059
rfoot 16.8433 7.48057
rtoes 5.65628
lfemur -84.9272 -0.889801 -32.9897
ltibia 63.5174
lfoot -21.733 1.40464
ltoes -8.11165
